<svg width="203" height="257" viewBox="0 0 203 257" fill="none" xmlns="http://www.w3.org/2000/svg">
<g opacity="0.3">
<g clip-path="url(#clip0_266_5787)">
<path fill-rule="evenodd" clip-rule="evenodd" d="M203.297 88.6318V167.257L183.686 186.913L183.51 187.092L175.736 195.133L159.305 211.573L143.051 228.012V228.37L131.92 239.806L121.32 250.528L115.489 256.246V255.889V78.625V0.357386V0L121.32 5.71818L131.92 16.4398L143.051 27.8761V28.2335L162.662 48.0684L151.885 58.9687L143.228 67.7247L143.051 67.546V188.7L159.305 172.26L164.075 167.435L164.252 167.257L175.736 155.642V116.508L164.252 128.123L159.305 132.948V93.6352L183.686 68.9755L203.297 88.6318ZM27.3847 60.9344L60.0696 27.8761H60.2463L82.1541 5.7182L87.8077 1.59997e-05V78.625V255.889L82.1541 250.17L60.2463 228.012V149.387L53.7093 142.776L38.8686 127.766L27.5614 116.329V194.954L19.4343 186.913L0 167.257V88.6318L19.2576 69.1543L27.3847 60.9344ZM58.3029 108.288L60.0696 110.075V67.1886L38.8686 88.6318L58.3029 108.288Z" fill="#02244A"/>
</g>
</g>
<defs>
<clipPath id="clip0_266_5787">
<rect width="203" height="256.246" fill="white"/>
</clipPath>
</defs>
</svg>
