<svg width="63" height="79" viewBox="0 0 63 79" fill="none" xmlns="http://www.w3.org/2000/svg">
<g clip-path="url(#clip0_291_2037)">
<path fill-rule="evenodd" clip-rule="evenodd" d="M8.44263 18.7859L18.5193 8.59414H18.5738L25.3279 1.7629L27.0709 0V24.2399V78.8898L25.3279 77.1269L18.5738 70.2957V46.0558L16.5585 44.0174L11.9831 39.3898L8.4971 35.864V60.1039L5.99155 57.6248L0 51.5649V27.325L5.93708 21.3201L8.44263 18.7859ZM17.9746 33.3849L18.5193 33.9358V20.7141L11.9831 27.325L17.9746 33.3849ZM62.5844 27.325V51.5649L56.5384 57.6248L56.4839 57.6799L54.0873 60.159L49.0217 65.2273L44.0106 70.2957V70.4059L40.5791 73.9317L37.311 77.2371L35.5135 79V78.8898V24.2399V0.110181V0L37.311 1.7629L40.5791 5.06834L44.0106 8.59414V8.70432L50.0566 14.8194L46.7341 18.1799L44.0651 20.8794L44.0106 20.8243V58.1757L49.0217 53.1074L50.4924 51.6199L50.5469 51.5649L54.0873 47.984V35.9191L50.5469 39.5L49.0217 40.9875V28.8675L56.5384 21.265L62.5844 27.325Z" fill="#FFA047"/>
</g>
<defs>
<clipPath id="clip0_291_2037">
<rect width="62.5844" height="79" fill="white"/>
</clipPath>
</defs>
</svg>
