<svg width="630" height="327" viewBox="0 0 630 327" fill="none" xmlns="http://www.w3.org/2000/svg">
<g clip-path="url(#clip0_291_2002)">
<path d="M386.981 124.978V66.2279L372.237 51.5402L353.739 69.9665V99.3418L357.358 95.7366L366.071 87.0576V116.299L357.358 124.978L357.224 125.112L353.739 128.717L341.273 141.001V50.472L341.407 50.6056L348.109 44.0629L356.285 35.9179L341.273 21.0968V20.8297L332.828 12.2842L324.785 4.27276L320.496 0V0.267048V58.7505V191.206V191.473L324.785 187.201L332.828 179.189L341.273 170.644V170.376L353.739 158.092L366.071 145.808L372.102 139.8L372.237 139.666L386.981 124.978L380.413 131.521L386.981 124.978Z" fill="#02244A"/>
<path d="M278.674 20.8297L253.876 45.5316L247.711 51.6737L232.966 66.3614V125.112L247.711 139.8L253.876 145.808V87.0576L262.455 95.6031L273.715 106.819L278.674 111.759V170.51L295.296 187.067L299.585 191.34V58.7505V0L295.296 4.27276L278.674 20.8297ZM278.674 82.2507L277.334 80.9155L262.589 66.2279L278.674 50.205V82.2507Z" fill="#02244A"/>
<path d="M214.066 325.932C212.19 325.932 210.313 325.665 208.704 324.997C207.096 324.33 205.621 323.529 204.549 322.327C203.343 321.125 202.404 319.79 201.734 318.321C201.064 316.719 200.796 315.117 200.796 313.247C200.796 311.378 201.064 309.776 201.734 308.173C202.404 306.571 203.343 305.236 204.549 304.168C205.755 303.099 207.23 302.165 208.838 301.497C210.447 300.83 212.19 300.562 214.2 300.562C216.211 300.562 218.221 300.963 219.83 301.631C221.572 302.298 222.913 303.367 224.119 304.568L221.17 307.372C220.232 306.438 219.16 305.636 218.087 305.236C217.015 304.835 215.675 304.568 214.334 304.568C212.994 304.568 211.787 304.835 210.715 305.236C209.643 305.636 208.704 306.304 207.9 306.972C207.096 307.773 206.426 308.707 206.024 309.776C205.621 310.844 205.353 312.046 205.353 313.247C205.353 314.449 205.621 315.651 206.024 316.719C206.426 317.787 207.096 318.722 207.9 319.523C208.704 320.324 209.643 320.858 210.715 321.392C211.787 321.926 212.994 322.06 214.334 322.06C215.675 322.06 216.747 321.926 217.819 321.526C219.026 321.125 220.098 320.458 221.036 319.523L223.717 322.994C222.377 324.063 220.902 324.864 219.16 325.398C217.417 325.932 215.675 326.199 213.932 326.199L214.066 325.932ZM219.428 322.193V312.98H223.717V322.861L219.428 322.327V322.193Z" fill="#02244A"/>
<path d="M251.062 325.532V300.83H261.249C263.393 300.83 265.27 301.231 266.879 301.898C268.487 302.566 269.693 303.634 270.498 304.969C271.302 306.305 271.704 307.907 271.704 309.643C271.704 311.378 271.302 312.981 270.498 314.316C269.693 315.651 268.487 316.586 266.879 317.254C265.27 317.921 263.393 318.322 261.249 318.322H253.608L255.619 316.185V325.398H251.062V325.532ZM255.619 316.853L253.608 314.717H260.981C262.991 314.717 264.466 314.316 265.538 313.381C266.61 312.447 267.013 311.245 267.013 309.776C267.013 308.307 266.476 306.972 265.538 306.171C264.6 305.37 262.991 304.969 260.981 304.969H253.608L255.619 302.699V316.986V316.853ZM267.147 325.532L260.847 316.586H265.806L272.106 325.532H267.147Z" fill="#02244A"/>
<path d="M309.639 325.932C307.762 325.932 305.885 325.665 304.277 324.997C302.668 324.33 301.194 323.529 299.988 322.327C298.781 321.125 297.843 319.79 297.173 318.321C296.502 316.719 296.234 315.117 296.234 313.247C296.234 311.378 296.502 309.776 297.173 308.173C297.843 306.571 298.781 305.236 299.988 304.168C301.194 302.966 302.668 302.165 304.277 301.497C305.885 300.83 307.628 300.562 309.639 300.562C311.649 300.562 313.392 300.83 315 301.497C316.609 302.165 318.083 302.966 319.156 304.168C320.228 305.369 321.3 306.705 321.971 308.173C322.641 309.642 322.909 311.378 322.909 313.247C322.909 315.117 322.641 316.719 321.971 318.321C321.3 319.923 320.362 321.259 319.156 322.327C317.949 323.395 316.609 324.33 315 324.997C313.392 325.665 311.649 325.932 309.773 325.932H309.639ZM309.639 321.926C310.845 321.926 312.051 321.659 313.124 321.259C314.196 320.858 315.134 320.191 315.939 319.389C316.743 318.588 317.279 317.654 317.815 316.585C318.351 315.517 318.485 314.449 318.485 313.114C318.485 311.778 318.217 310.71 317.815 309.642C317.413 308.574 316.743 307.639 315.939 306.838C315.134 306.037 314.196 305.503 313.124 304.969C312.051 304.568 310.845 304.301 309.639 304.301C308.432 304.301 307.226 304.568 306.154 304.969C305.081 305.369 304.143 306.037 303.339 306.838C302.534 307.639 301.998 308.574 301.462 309.642C301.06 310.71 300.792 311.778 300.792 313.114C300.792 314.449 301.06 315.517 301.462 316.585C301.864 317.654 302.534 318.588 303.339 319.389C304.143 320.191 305.081 320.725 306.154 321.259C307.226 321.793 308.432 321.926 309.639 321.926Z" fill="#02244A"/>
<path d="M359.636 325.932C356.285 325.932 353.605 324.997 351.728 323.128C349.851 321.259 348.913 318.455 348.913 314.849V300.963H353.471V314.716C353.471 317.253 354.007 319.122 355.079 320.19C356.151 321.392 357.76 321.926 359.771 321.926C361.781 321.926 363.256 321.392 364.462 320.19C365.534 318.989 366.071 317.253 366.071 314.716V300.963H370.628V314.849C370.628 318.455 369.69 321.125 367.813 323.128C365.936 324.997 363.256 325.932 359.905 325.932H359.636Z" fill="#02244A"/>
<path d="M398.106 325.532V300.83H408.294C410.438 300.83 412.315 301.231 413.923 301.898C415.532 302.566 416.738 303.634 417.543 304.969C418.347 306.305 418.749 307.907 418.749 309.643C418.749 311.378 418.347 312.981 417.543 314.316C416.738 315.651 415.532 316.586 413.923 317.387C412.315 318.055 410.438 318.455 408.294 318.455H400.653L402.664 316.319V325.532H398.106ZM402.664 316.853L400.653 314.583H408.026C410.036 314.583 411.511 314.182 412.583 313.248C413.655 312.313 414.058 311.245 414.058 309.643C414.058 308.04 413.521 306.839 412.583 306.038C411.645 305.236 410.036 304.836 408.026 304.836H400.653L402.664 302.566V316.853Z" fill="#02244A"/>
<path d="M78.0128 224.854H77.8787H38.2021H38.0681H38.2021L0 264.11H39.8106L58.0404 245.283L76.4043 264.11H116.081L77.8787 224.854H78.0128Z" fill="#02244A"/>
<path d="M461.643 224.854H461.509H421.832L383.63 264.11H423.44L441.67 245.283L460.034 264.11H499.711L461.643 224.854Z" fill="#02244A"/>
<path d="M237.658 224.854H167.688L205.89 264.11H245.7L222.511 240.342L237.658 224.854Z" fill="#02244A"/>
<path d="M167.687 224.854H128.145V264.243H167.687V224.854Z" fill="#02244A"/>
<path d="M551.451 224.854H511.908V264.243H551.451V224.854Z" fill="#02244A"/>
<path d="M591.262 224.854H590.458H551.451L589.653 264.11H630V224.854H591.262Z" fill="#02244A"/>
<path d="M295.698 224.854H256.155V264.243H295.698V224.854Z" fill="#02244A"/>
<path d="M345.159 245.55L350.521 239.942L365.266 224.854H325.455L310.71 239.942L305.349 245.55H316.206L334.302 264.11H373.978L355.883 245.55H345.159Z" fill="#02244A"/>
</g>
<defs>
<clipPath id="clip0_291_2002">
<rect width="630" height="327" fill="white"/>
</clipPath>
</defs>
</svg>
