<svg width="26" height="56" viewBox="0 0 26 56" fill="none" xmlns="http://www.w3.org/2000/svg">
<rect width="26" height="46" fill="#02244A"/>
<g clip-path="url(#clip0_2080_2)">
<path d="M9.25 29.75H16.75V19.25H16V18.125C16 17.6277 15.8025 17.1508 15.4508 16.7992C15.0992 16.4475 14.6223 16.25 14.125 16.25H11.875C11.3777 16.25 10.9008 16.4475 10.5492 16.7992C10.1975 17.1508 10 17.6277 10 18.125V19.25H9.25V29.75ZM11.5 18.125C11.5 18.0255 11.5395 17.9302 11.6098 17.8598C11.6802 17.7895 11.7755 17.75 11.875 17.75H14.125C14.2245 17.75 14.3198 17.7895 14.3902 17.8598C14.4605 17.9302 14.5 18.0255 14.5 18.125V19.25H11.5V18.125Z" fill="#F5F5F5"/>
<path d="M18.25 19.25V29.75C18.8467 29.75 19.419 29.5129 19.841 29.091C20.2629 28.669 20.5 28.0967 20.5 27.5V21.5C20.5 20.9033 20.2629 20.331 19.841 19.909C19.419 19.4871 18.8467 19.25 18.25 19.25Z" fill="#F5F5F5"/>
<path d="M7.75 19.25C7.15326 19.25 6.58097 19.4871 6.15901 19.909C5.73705 20.331 5.5 20.9033 5.5 21.5V27.5C5.5 28.0967 5.73705 28.669 6.15901 29.091C6.58097 29.5129 7.15326 29.75 7.75 29.75V19.25Z" fill="#F5F5F5"/>
</g>
<path d="M26 46H0L13 56L26 46Z" fill="#02244A"/>
<defs>
<clipPath id="clip0_2080_2">
<rect width="18" height="18" fill="white" transform="translate(4 14)"/>
</clipPath>
</defs>
</svg>
