<svg width="10" height="20" viewBox="0 0 10 20" fill="none" xmlns="http://www.w3.org/2000/svg">
<path d="M6.73913 14.4186C6.73913 15.3948 5.96052 16.186 5 16.186C4.03948 16.186 3.26087 15.3948 3.26087 14.4186C3.26087 13.6773 3.71096 13.0447 4.34783 12.7822V3.81395C4.34783 3.448 4.63991 3.15116 5 3.15116C5.36009 3.15116 5.65217 3.448 5.65217 3.81395V12.7822C6.28904 13.0446 6.73913 13.6773 6.73913 14.4186ZM10 14.4186C10 17.2208 7.75687 19.5 5 19.5C2.24313 19.5 0 17.2208 0 14.4186C0 12.936 0.629652 11.5577 1.73913 10.5869V3.81395C1.73913 1.98695 3.20183 0.5 5 0.5C6.79817 0.5 8.26087 1.98695 8.26087 3.81395V10.5869C9.37035 11.5577 10 12.936 10 14.4186ZM8.69565 14.4186C8.69565 13.2432 8.156 12.155 7.21557 11.4326C7.05252 11.3075 6.95652 11.1115 6.95652 10.9036V3.81395C6.95652 2.71796 6.07887 1.82558 5 1.82558C3.92113 1.82558 3.04348 2.71796 3.04348 3.81395V10.9036C3.04348 11.1116 2.94748 11.3075 2.78443 11.4326C1.844 12.155 1.30435 13.2432 1.30435 14.4186C1.30435 16.4899 2.96235 18.1744 5 18.1744C7.03765 18.1744 8.69565 16.4899 8.69565 14.4186Z" fill="#02244A"/>
</svg>
