<svg width="26" height="56" viewBox="0 0 26 56" fill="none" xmlns="http://www.w3.org/2000/svg">
<rect width="26" height="46" fill="#FFA047"/>
<path fill-rule="evenodd" clip-rule="evenodd" d="M7.1584 17.6865L9.73454 15.0719H9.74847L11.4752 13.3194L11.9208 12.8672V19.0857V33.1056L11.4752 32.6533L9.74847 30.9008V24.6823L9.23324 24.1594L8.06353 22.9722L7.17232 22.0677V28.2862L6.53176 27.6502L5 26.0956V19.8771L6.51784 18.3366L7.1584 17.6865ZM9.59529 21.4317L9.73454 21.5731V18.1812L8.06353 19.8771L9.59529 21.4317ZM21 19.8771V26.0956L19.4543 27.6502L19.4404 27.6644L18.8277 28.3004L17.5326 29.6006L16.2515 30.9008V30.9291L15.3742 31.8336L14.5387 32.6816L14.0792 33.1338V33.1056V19.0857V12.8955V12.8672L14.5387 13.3194L15.3742 14.1674L16.2515 15.0719V15.1002L17.7972 16.6689L16.9478 17.5311L16.2654 18.2236L16.2515 18.2094V27.7916L17.5326 26.4913L17.9086 26.1097L17.9225 26.0956L18.8277 25.177V22.0819L17.9225 23.0005L17.5326 23.3821V20.2728L19.4543 18.3225L21 19.8771Z" fill="#F5F5F5"/>
<path d="M26 46H0L13 56L26 46Z" fill="#FFA047"/>
</svg>
