<svg width="15" height="15" viewBox="0 0 15 15" fill="none" xmlns="http://www.w3.org/2000/svg">
<path d="M14.4767 1.04651C14.7657 1.04651 15 0.812163 15 0.523256C15 0.234349 14.7657 0 14.4767 0H0.523256C0.234349 0 0 0.234349 0 0.523256C0 0.812163 0.234349 1.04651 0.523256 1.04651H2.09302V13.9535H0.523256C0.234349 13.9535 0 14.1878 0 14.4767C0 14.7657 0.234349 15 0.523256 15H14.4767C14.7657 15 15 14.7657 15 14.4767C15 14.1878 14.7657 13.9535 14.4767 13.9535H12.907V1.04651H14.4767ZM6.97674 13.9535H3.13953V8.02326H6.97674V13.9535ZM6.97674 6.97674H3.13953V1.04651H6.97674V6.97674ZM11.8605 13.9535H8.02326V8.02326H11.8605V13.9535ZM11.8605 6.97674H8.02326V1.04651H11.8605V6.97674Z" fill="#02244A"/>
</svg>
