<svg width="17" height="17" viewBox="0 0 17 17" fill="none" xmlns="http://www.w3.org/2000/svg">
<path d="M0.652484 4.80316L5.80283 7.37739C5.97077 7.46156 6.15146 7.50325 6.33138 7.50325C6.54642 7.50325 6.7607 7.44379 6.95143 7.32566C7.30238 7.1087 7.51164 6.73345 7.51164 6.32114V4.33989H8.75483C9.81347 4.33989 10.6744 3.47898 10.6744 2.42042C10.6744 2.17102 10.8775 1.96795 11.1269 1.96795H15.6163C15.9437 1.96795 16.2093 1.70234 16.2093 1.37497C16.2093 1.04759 15.9437 0.781984 15.6163 0.781984H11.1269C10.2235 0.781984 9.48838 1.51704 9.48838 2.42042C9.48838 2.82501 9.15943 3.15392 8.75483 3.15392H7.51164V1.17267C7.51164 0.760368 7.30238 0.38512 6.95143 0.168151C6.60125 -0.0488106 6.17154 -0.068885 5.80283 0.116419L0.652096 2.69065C0.249797 2.89217 0 3.29753 0 3.74691C0 4.19628 0.249797 4.60163 0.652484 4.80316ZM6.32558 1.18117L6.32852 3.15393H5.33721C5.00981 3.15393 4.74419 3.41954 4.74419 3.74691C4.74419 4.07429 5.00981 4.3399 5.33721 4.3399H6.33031L6.3333 6.31651L1.18295 3.75155L6.32558 1.18117ZM15.6163 12.6417H13.0465V10.8627C13.0465 10.0999 12.4257 9.4791 11.6628 9.4791H5.33721C4.57431 9.4791 3.95349 10.0999 3.95349 10.8627V12.6417H1.38372C0.620824 12.6417 0 13.2625 0 14.0253V15.6066C0 16.3694 0.620824 16.9902 1.38372 16.9902H15.6163C16.3792 16.9902 17 16.3694 17 15.6066V14.0253C17 13.2625 16.3792 12.6417 15.6163 12.6417ZM7.90698 15.8043H1.38372C1.27484 15.8043 1.18605 15.7155 1.18605 15.6066V14.0253C1.18605 13.9164 1.27484 13.8277 1.38372 13.8277H7.90698V15.8043ZM5.13953 12.6417V10.8627C5.13953 10.7539 5.22833 10.6651 5.33721 10.6651H11.6628C11.7717 10.6651 11.8605 10.7539 11.8605 10.8627V12.6417H5.13953ZM15.814 15.6066C15.814 15.7155 15.7252 15.8043 15.6163 15.8043H9.09302V13.8277H15.6163C15.7252 13.8277 15.814 13.9164 15.814 14.0253V15.6066Z" fill="#02244A"/>
</svg>
