<svg width="13" height="16" viewBox="0 0 13 16" fill="none" xmlns="http://www.w3.org/2000/svg">
<path d="M10.9571 2.97674H10.0286V0.55814C10.0286 0.250002 9.77902 0 9.47143 0C9.16384 0 8.91429 0.250002 8.91429 0.55814V2.97674H4.08571V0.55814C4.08571 0.250002 3.83616 0 3.52857 0C3.22098 0 2.97143 0.250002 2.97143 0.55814V2.97674H2.04286C0.91624 2.97674 0 3.89499 0 5.02326V6.30777C0 9.80073 2.60104 12.71 5.94286 12.9949V15.4419C5.94286 15.75 6.19241 16 6.5 16C6.80759 16 7.05714 15.75 7.05714 15.4419V12.9979C8.50849 12.8764 9.86267 12.279 10.9448 11.2631C12.251 10.0363 13 8.3045 13 6.51162V5.02325C13 3.89498 12.0838 2.97674 10.9571 2.97674ZM11.8857 6.51163C11.8857 8.0189 11.2807 9.41715 10.1827 10.4488C9.08476 11.4797 7.64729 11.9949 6.14018 11.8954C3.32182 11.7126 1.11429 9.25799 1.11429 6.30778V5.02326C1.11429 4.51018 1.5307 4.09303 2.04286 4.09303H10.9572C11.4693 4.09303 11.8857 4.51018 11.8857 5.02326L11.8857 6.51163ZM8.47929 8.30274L6.14671 10.8716C5.91194 11.1301 5.52958 10.8744 5.60834 10.5114L6.04851 8.48428C6.09888 8.25235 5.9225 8.03311 5.6856 8.03311H4.7447C4.445 8.03311 4.30589 7.60492 4.53205 7.37849L6.79136 5.1165C7.03379 4.87382 7.40219 5.14153 7.31622 5.4979L6.90544 7.20053C6.84894 7.43463 7.02604 7.66001 7.26648 7.66001H8.25531C8.54749 7.66001 8.69044 8.07018 8.47929 8.30274Z" fill="#02244A"/>
</svg>
