<svg width="18" height="15" viewBox="0 0 18 15" fill="none" xmlns="http://www.w3.org/2000/svg">
<path d="M11.7727 10.9091V11.4091H12.2727H16.1364C16.733 11.4091 17.2273 11.9034 17.2273 12.5V13.4091C17.2273 14.0057 16.733 14.5 16.1364 14.5H2.5C1.39432 14.5 0.5 13.6057 0.5 12.5V1.59091C0.5 0.994324 0.994324 0.5 1.59091 0.5H7.04545C7.64204 0.5 8.13636 0.994324 8.13636 1.59091V2.5C8.13636 2.92452 7.88372 3.29958 7.5129 3.47556L7.22727 3.61111V3.92727V5.45455V5.95455H7.72727H11.5909C12.1875 5.95455 12.6818 6.44887 12.6818 7.04545V7.95455C12.6818 8.37907 12.4292 8.75412 12.0584 8.9301L11.7727 9.06566V9.38182V10.9091ZM1.42565 3.5675L0.863636 3.49725V4.06364V12.5C0.863636 13.4034 1.59659 14.1364 2.5 14.1364H9.11818H9.75857L9.60325 13.5151C9.59529 13.4832 9.59091 13.4513 9.59091 13.4091V12.5C9.59091 11.9034 10.0852 11.4091 10.6818 11.4091H10.9091H11.4091V10.9091V9.54545V9.04545H10.9091H6.13636C5.53978 9.04545 5.04545 8.55113 5.04545 7.95455V7.04545C5.04545 6.44887 5.53978 5.95455 6.13636 5.95455H6.36364H6.86364V5.45455V4.09091V3.59091H6.36364H1.59091C1.58638 3.59091 1.57597 3.59045 1.54876 3.58632C1.53828 3.58474 1.52903 3.58321 1.51688 3.58122C1.5115 3.58033 1.50554 3.57935 1.49866 3.57823C1.47894 3.57502 1.45334 3.57096 1.42565 3.5675ZM12.3182 7.95455V7.04545C12.3182 6.64204 11.9943 6.31818 11.5909 6.31818H6.13636C5.73295 6.31818 5.40909 6.64204 5.40909 7.04545V7.95455C5.40909 8.35796 5.73295 8.68182 6.13636 8.68182H11.5909C11.9943 8.68182 12.3182 8.35796 12.3182 7.95455ZM1.59091 0.863636C1.18749 0.863636 0.863636 1.18749 0.863636 1.59091V2.5C0.863636 2.90342 1.18749 3.22727 1.59091 3.22727H7.04545C7.44887 3.22727 7.77273 2.90342 7.77273 2.5V1.59091C7.77273 1.18749 7.44887 0.863636 7.04545 0.863636H1.59091ZM16.1364 14.1364C16.5398 14.1364 16.8636 13.8125 16.8636 13.4091V12.5C16.8636 12.0966 16.5398 11.7727 16.1364 11.7727H10.6818C10.2784 11.7727 9.95455 12.0966 9.95455 12.5V13.4091C9.95455 13.8125 10.2784 14.1364 10.6818 14.1364H16.1364Z" fill="#02244A" stroke="#02244A"/>
</svg>
