<svg width="15" height="20" viewBox="0 0 15 20" fill="none" xmlns="http://www.w3.org/2000/svg">
<path fill-rule="evenodd" clip-rule="evenodd" d="M6.72444 1.03766C5.99515 1.12006 5.30826 1.32507 4.61542 1.66715C3.9689 1.98634 3.55013 2.29272 2.97413 2.86788C1.76528 4.07498 1.11916 5.55996 1.00863 7.38522C0.883637 9.44954 2.11761 12.2442 4.64671 15.6248C5.39932 16.6308 6.48614 17.9405 7.28677 18.8064L7.46584 19L7.88227 18.5365C10.7368 15.3593 12.7817 12.2486 13.5569 9.90421C13.8105 9.13711 13.9576 8.38494 13.9947 7.66411C14.0062 7.44125 13.9991 7.33125 13.9733 7.33125C13.9512 7.33125 13.9348 7.25629 13.9348 7.15582C13.9348 6.87858 13.7949 6.12717 13.6612 5.68634C13.0364 3.62628 11.4778 1.99178 9.51173 1.33493C8.63871 1.04327 7.62851 0.935529 6.72444 1.03766ZM6.85062 2.15145C4.62209 2.45128 2.76124 4.27395 2.24736 6.66019C2.1409 7.15459 2.13207 8.1008 2.22966 8.55476C2.51436 9.87866 3.35844 11.5958 4.72487 13.6307C5.491 14.7717 6.0966 15.5761 7.41349 17.2018C7.44547 17.2413 7.49007 17.2623 7.5126 17.2483C7.53513 17.2344 7.77729 16.9447 8.05074 16.6044C10.3255 13.7739 11.9397 11.144 12.54 9.29037C12.7759 8.56206 12.8266 8.22578 12.8055 7.52917C12.7853 6.8603 12.7395 6.59386 12.5431 5.99978C11.8988 4.05177 10.3123 2.59741 8.40084 2.20262C8.05817 2.13183 7.20551 2.10369 6.85062 2.15145ZM6.95877 4.9712C6.23204 5.13904 5.65165 5.55737 5.28197 6.17971C4.91331 6.80035 4.83133 7.60387 5.06693 8.28738C5.31709 9.01318 5.92175 9.61183 6.67036 9.87485C6.93826 9.96899 6.99724 9.97611 7.49955 9.97503C8.01974 9.97388 8.05186 9.96946 8.34373 9.85841C8.74185 9.70691 9.0489 9.50326 9.33382 9.20181C10.2874 8.19285 10.2584 6.62953 9.26817 5.65792C8.78432 5.18323 8.25743 4.95868 7.57165 4.93493C7.31399 4.92604 7.0993 4.93874 6.95877 4.9712ZM7.05806 6.12267C6.85303 6.18878 6.57208 6.37241 6.4317 6.53197C6.36875 6.60355 6.26691 6.76814 6.2054 6.89773C6.1046 7.11001 6.09357 7.16715 6.09379 7.47519C6.09404 7.78402 6.10511 7.84037 6.20825 8.05819C6.3535 8.36493 6.58986 8.60092 6.89745 8.74641C7.11884 8.8511 7.16924 8.86063 7.50031 8.86063C7.83483 8.86063 7.87914 8.852 8.09894 8.744C8.80346 8.39779 9.10183 7.53751 8.75699 6.84659C8.62836 6.58886 8.34208 6.31195 8.08016 6.19198C7.89914 6.10907 7.80245 6.0896 7.5356 6.08222C7.33479 6.07668 7.15277 6.09208 7.05806 6.12267ZM1.0052 7.6911C1.0052 7.87913 1.0113 7.95606 1.01872 7.86203C1.02615 7.768 1.02615 7.6142 1.01872 7.52017C1.0113 7.42614 1.0052 7.50308 1.0052 7.6911Z" fill="#02244A" stroke="#02244A" stroke-width="0.2"/>
</svg>
