<svg width="15" height="15" viewBox="0 0 15 15" fill="none" xmlns="http://www.w3.org/2000/svg">
<path d="M5.26923 9.23077V9.73077H5.76923H13.6538C14.1162 9.73077 14.5 10.1146 14.5 10.5769V13.6538C14.5 14.1162 14.1162 14.5 13.6538 14.5H1.34615C0.883834 14.5 0.5 14.1162 0.5 13.6538V1.34615C0.5 0.883835 0.883835 0.5 1.34615 0.5H4.42308C4.8854 0.5 5.26923 0.883835 5.26923 1.34615V9.23077ZM1.15385 11.4231H0.653846V11.9231V13.6538C0.653846 14.0377 0.962319 14.3462 1.34615 14.3462H4.61538H5.11538V13.8462V1.34615C5.11538 0.96232 4.80691 0.653846 4.42308 0.653846H1.34615C0.962319 0.653846 0.653846 0.962319 0.653846 1.34615V3.07692V3.57692H1.15385H2.11538C2.13239 3.57692 2.15165 3.58376 2.16856 3.60067C2.18547 3.61758 2.19231 3.63684 2.19231 3.65385C2.19231 3.67085 2.18547 3.69011 2.16856 3.70702C2.15165 3.72393 2.13239 3.73077 2.11538 3.73077H1.15385H0.653846V4.23077V6.92308V7.42308H1.15385H2.11538C2.13239 7.42308 2.15165 7.42991 2.16856 7.44682C2.18547 7.46373 2.19231 7.48299 2.19231 7.5C2.19231 7.51701 2.18547 7.53627 2.16856 7.55318C2.15165 7.57009 2.13239 7.57692 2.11538 7.57692H1.15385H0.653846V8.07692V10.7692V11.2692H1.15385H2.11538C2.13239 11.2692 2.15165 11.2761 2.16856 11.293C2.18547 11.3099 2.19231 11.3291 2.19231 11.3462C2.19231 11.3632 2.18547 11.3824 2.16856 11.3993C2.15165 11.4162 2.13239 11.4231 2.11538 11.4231H1.15385ZM11.4231 13.8462V14.3462H11.9231H13.6538C14.0377 14.3462 14.3462 14.0377 14.3462 13.6538V10.5769C14.3462 10.1931 14.0377 9.88462 13.6538 9.88462H5.76923H5.26923V10.3846V13.8462V14.3462H5.76923H7.69231H8.19231V13.8462V12.8846C8.19231 12.8676 8.19914 12.8483 8.21605 12.8314C8.23296 12.8145 8.25222 12.8077 8.26923 12.8077C8.28624 12.8077 8.3055 12.8145 8.32241 12.8314C8.33932 12.8483 8.34615 12.8676 8.34615 12.8846V13.8462V14.3462H8.84615H10.7692H11.2692V13.8462V12.8846C11.2692 12.8676 11.2761 12.8483 11.293 12.8314C11.3099 12.8145 11.3291 12.8077 11.3462 12.8077C11.3632 12.8077 11.3824 12.8145 11.3993 12.8314C11.4162 12.8483 11.4231 12.8676 11.4231 12.8846V13.8462Z" fill="#02244A" stroke="#02244A"/>
</svg>
