<svg width="15" height="15" viewBox="0 0 15 15" fill="none" xmlns="http://www.w3.org/2000/svg">
<path d="M12.8846 -0.00976562H2.11538C0.948769 -0.00976562 0 0.939004 0 2.10562V12.8749C0 14.0415 0.948769 14.9902 2.11538 14.9902H12.8846C14.0512 14.9902 15 14.0415 15 12.8749V2.10562C15 0.939004 14.0512 -0.00976562 12.8846 -0.00976562ZM5 1.14408H10V3.45177H5V1.14408ZM1.15385 2.10562C1.15385 1.57527 1.58504 1.14408 2.11538 1.14408H3.84615V3.45177H1.15385V2.10562ZM1.15385 4.60562H6.92308V6.91331H1.15385V4.60562ZM1.15385 8.06716H3.84615V10.3749H1.15385V8.06716ZM6.92308 13.8364H2.11538C1.58504 13.8364 1.15385 13.4052 1.15385 12.8749V11.5287H6.92308V13.8364ZM5 10.3749V8.06716H10V10.3749H5ZM13.8462 12.8749C13.8462 13.4052 13.415 13.8364 12.8846 13.8364H8.07692V11.5287H13.8462V12.8749ZM13.8462 10.3749H11.1538V8.06716H13.8462V10.3749ZM13.8462 6.91331H8.07692V4.60562H13.8462V6.91331ZM13.8462 3.45177H11.1538V1.14408H12.8846C13.415 1.14408 13.8462 1.57527 13.8462 2.10562V3.45177Z" fill="#02244A"/>
</svg>
