<svg width="15" height="15" viewBox="0 0 15 15" fill="none" xmlns="http://www.w3.org/2000/svg">
<path d="M8.87149 0.205791C8.53626 -0.0187254 8.11388 -0.0633077 7.74014 0.0906722L2.59751 2.19804C1.86712 2.49714 1.39535 3.20815 1.39535 4.00938V13.9535H0.523256C0.234349 13.9535 0 14.1878 0 14.4767C0 14.7656 0.234349 15 0.523256 15H7.5C8.55809 15 9.4186 14.1391 9.4186 13.0814V1.23837C9.4186 0.82171 9.21419 0.435749 8.87149 0.205791ZM8.37209 13.0814C8.37209 13.5624 7.98105 13.9535 7.5 13.9535H2.44186V4.00938C2.44186 3.63465 2.65849 3.30388 2.99407 3.16622L8.1367 1.05885C8.20242 1.03158 8.25558 1.05306 8.2883 1.07483C8.31349 1.09186 8.37209 1.1416 8.37209 1.23837V13.0814ZM7.32558 6.80216V8.19753C7.32558 8.48645 7.09123 8.7208 6.80233 8.7208C6.51342 8.7208 6.27907 8.48645 6.27907 8.19753V6.80216C6.27907 6.51324 6.51342 6.27889 6.80233 6.27889C7.09123 6.27889 7.32558 6.51324 7.32558 6.80216ZM15 14.4767C15 14.7656 14.7657 15 14.4767 15H9.51691C9.79737 14.7053 10.0064 14.3481 10.1373 13.9535H12.5581V4.70909C12.5581 4.22804 12.1671 3.83698 11.686 3.83698H10.2907V2.79045H11.686C12.7441 2.79045 13.6047 3.65098 13.6047 4.70909V13.9535H14.4767C14.7657 13.9535 15 14.1878 15 14.4767Z" fill="#02244A"/>
</svg>
