<svg width="14" height="14" viewBox="0 0 14 14" fill="none" xmlns="http://www.w3.org/2000/svg">
<path d="M12.0256 0H1.97436C0.885518 0 0 0.885518 0 1.97436V12.0256C0 13.1145 0.885518 14 1.97436 14H12.0256C13.1145 14 14 13.1145 14 12.0256V1.97436C14 0.885518 13.1145 0 12.0256 0ZM12.9231 12.0256C12.9231 12.5206 12.5206 12.9231 12.0256 12.9231H1.97436C1.47937 12.9231 1.07692 12.5206 1.07692 12.0256V1.97436C1.07692 1.47937 1.47937 1.07692 1.97436 1.07692H12.0256C12.5206 1.07692 12.9231 1.47937 12.9231 1.97436V12.0256ZM12.0256 2.69231C12.0256 3.08879 11.7042 3.41026 11.3077 3.41026C10.9112 3.41026 10.5897 3.08879 10.5897 2.69231C10.5897 2.29578 10.9112 1.97436 11.3077 1.97436C11.7042 1.97436 12.0256 2.29578 12.0256 2.69231ZM3.41026 2.69231C3.41026 3.08879 3.08884 3.41026 2.69231 3.41026C2.29578 3.41026 1.97436 3.08879 1.97436 2.69231C1.97436 2.29578 2.29578 1.97436 2.69231 1.97436C3.08884 1.97436 3.41026 2.29578 3.41026 2.69231ZM12.0256 11.3077C12.0256 11.7042 11.7042 12.0256 11.3077 12.0256C10.9112 12.0256 10.5897 11.7042 10.5897 11.3077C10.5897 10.9112 10.9112 10.5897 11.3077 10.5897C11.7042 10.5897 12.0256 10.9112 12.0256 11.3077ZM3.41026 11.3077C3.41026 11.7042 3.08884 12.0256 2.69231 12.0256C2.29578 12.0256 1.97436 11.7042 1.97436 11.3077C1.97436 10.9112 2.29578 10.5897 2.69231 10.5897C3.08884 10.5897 3.41026 10.9112 3.41026 11.3077Z" fill="#02244A"/>
</svg>
