<svg width="12" height="18" viewBox="0 0 12 18" fill="none" xmlns="http://www.w3.org/2000/svg">
<path d="M6.50164 0.773659C6.29369 0.40878 5.70631 0.40878 5.49836 0.773659L0.743221 9.10936C0.257108 9.96175 0 10.9339 0 11.9208C0 14.997 2.44767 17.5 5.45602 17.5H6.54398C9.55225 17.5 12 14.9971 12 11.9208C12 10.9339 11.743 9.96175 11.2568 9.10936L6.50164 0.773659ZM6.54398 16.3124H5.45602C3.08808 16.3124 1.16128 14.3421 1.16128 11.9207C1.16128 11.1438 1.3635 10.3787 1.74649 9.7077L6.00004 2.25107L10.2535 9.7077C10.6364 10.3788 10.8387 11.1438 10.8387 11.9207C10.8387 14.3421 8.91192 16.3124 6.54398 16.3124Z" fill="#02244A"/>
</svg>
