<svg width="46" height="46" viewBox="0 0 46 46" fill="none" xmlns="http://www.w3.org/2000/svg">
<circle cx="23" cy="23" r="22.25" stroke="#000B14" stroke-width="1.5"/>
<path d="M22.9999 13.5293C20.4298 13.5293 20.1066 13.5411 19.0968 13.5861C18.087 13.6335 17.3992 13.7921 16.7966 14.0265C16.1643 14.2637 15.5917 14.6366 15.1192 15.1192C14.6366 15.5917 14.2637 16.1643 14.0265 16.7966C13.7921 17.398 13.6323 18.087 13.5861 19.0933C13.5411 20.1054 13.5293 20.4274 13.5293 23.0011C13.5293 25.5723 13.5411 25.8943 13.5861 26.9041C13.6335 27.9128 13.7921 28.6006 14.0265 29.2031C14.2692 29.8258 14.5924 30.3538 15.1192 30.8806C15.6448 31.4074 16.1728 31.7318 16.7955 31.9733C17.3992 32.2077 18.0858 32.3675 19.0945 32.4137C20.1054 32.4586 20.4274 32.4705 22.9999 32.4705C25.5723 32.4705 25.8932 32.4586 26.9041 32.4137C27.9116 32.3663 28.6017 32.2077 29.2043 31.9733C29.8362 31.736 30.4084 31.363 30.8806 30.8806C31.4074 30.3538 31.7306 29.8258 31.9733 29.2031C32.2065 28.6006 32.3663 27.9128 32.4137 26.9041C32.4586 25.8943 32.4705 25.5723 32.4705 22.9999C32.4705 20.4274 32.4586 20.1054 32.4137 19.0945C32.3663 18.087 32.2065 17.398 31.9733 16.7966C31.7361 16.1643 31.3631 15.5917 30.8806 15.1192C30.4081 14.6366 29.8355 14.2637 29.2031 14.0265C28.5994 13.7921 27.9104 13.6323 26.903 13.5861C25.892 13.5411 25.5712 13.5293 22.9975 13.5293H22.9999ZM22.1511 15.2364H23.0011C25.5297 15.2364 25.8292 15.2447 26.8272 15.2908C27.7506 15.3323 28.2525 15.4873 28.5863 15.6164C29.0279 15.788 29.344 15.994 29.6755 16.3255C30.0069 16.657 30.2117 16.9719 30.3834 17.4146C30.5136 17.7473 30.6675 18.2492 30.7089 19.1726C30.7551 20.1705 30.7646 20.4701 30.7646 22.9975C30.7646 25.525 30.7551 25.8257 30.7089 26.8236C30.6675 27.747 30.5124 28.2478 30.3834 28.5816C30.2305 28.9923 29.9883 29.3639 29.6743 29.6695C29.3428 30.001 29.0279 30.2058 28.5852 30.3775C28.2537 30.5077 27.7518 30.6616 26.8272 30.7042C25.8292 30.7492 25.5297 30.7598 23.0011 30.7598C20.4724 30.7598 20.1717 30.7492 19.1738 30.7042C18.2504 30.6616 17.7496 30.5077 17.4158 30.3775C17.0048 30.2251 16.6328 29.9833 16.3267 29.6695C16.0121 29.3637 15.7695 28.9916 15.6164 28.5804C15.4873 28.2478 15.3323 27.7458 15.2908 26.8225C15.2458 25.8245 15.2364 25.525 15.2364 22.9951C15.2364 20.4653 15.2458 20.1682 15.2908 19.1702C15.3334 18.2468 15.4873 17.7449 15.6176 17.4111C15.7892 16.9695 15.9952 16.6534 16.3267 16.3219C16.6581 15.9905 16.973 15.7857 17.4158 15.614C17.7496 15.4838 18.2504 15.3299 19.1738 15.2873C20.0474 15.247 20.386 15.2352 22.1511 15.234V15.2364ZM28.056 16.8085C27.9068 16.8085 27.759 16.8379 27.6211 16.895C27.4832 16.9521 27.3579 17.0358 27.2524 17.1414C27.1469 17.2469 27.0631 17.3722 27.006 17.5101C26.9489 17.6479 26.9195 17.7957 26.9195 17.945C26.9195 18.0942 26.9489 18.242 27.006 18.3799C27.0631 18.5178 27.1469 18.643 27.2524 18.7486C27.3579 18.8541 27.4832 18.9378 27.6211 18.9949C27.759 19.052 27.9068 19.0814 28.056 19.0814C28.3574 19.0814 28.6465 18.9617 28.8596 18.7486C29.0727 18.5354 29.1925 18.2464 29.1925 17.945C29.1925 17.6435 29.0727 17.3545 28.8596 17.1414C28.6465 16.9282 28.3574 16.8085 28.056 16.8085ZM23.0011 18.1367C22.356 18.1267 21.7153 18.245 21.1164 18.4849C20.5175 18.7249 19.9723 19.0815 19.5125 19.5342C19.0528 19.9868 18.6876 20.5264 18.4384 21.1215C18.1892 21.7166 18.0609 22.3553 18.0609 23.0005C18.0609 23.6457 18.1892 24.2844 18.4384 24.8795C18.6876 25.4746 19.0528 26.0142 19.5125 26.4668C19.9723 26.9194 20.5175 27.2761 21.1164 27.516C21.7153 27.7559 22.356 27.8743 23.0011 27.8642C24.2779 27.8443 25.4956 27.3231 26.3915 26.4131C27.2874 25.5032 27.7895 24.2774 27.7895 23.0005C27.7895 21.7235 27.2874 20.4978 26.3915 19.5878C25.4956 18.6778 24.2779 18.1567 23.0011 18.1367ZM23.0011 19.8426C23.4157 19.8426 23.8262 19.9243 24.2093 20.083C24.5924 20.2416 24.9404 20.4742 25.2336 20.7674C25.5268 21.0605 25.7593 21.4086 25.918 21.7917C26.0767 22.1747 26.1583 22.5853 26.1583 22.9999C26.1583 23.4145 26.0767 23.8251 25.918 24.2081C25.7593 24.5912 25.5268 24.9392 25.2336 25.2324C24.9404 25.5256 24.5924 25.7581 24.2093 25.9168C23.8262 26.0755 23.4157 26.1571 23.0011 26.1571C22.1637 26.1571 21.3607 25.8245 20.7686 25.2324C20.1765 24.6403 19.8438 23.8372 19.8438 22.9999C19.8438 22.1625 20.1765 21.3595 20.7686 20.7674C21.3607 20.1753 22.1637 19.8426 23.0011 19.8426Z" fill="#000B14"/>
</svg>
