<svg width="44" height="44" viewBox="0 0 44 44" fill="none" xmlns="http://www.w3.org/2000/svg">
<circle cx="22" cy="22" r="21.25" stroke="#000B14" stroke-width="1.5"/>
<path d="M26.6707 25.7035L25.7702 26.5942C25.1066 27.2451 24.2454 28.0826 23.1863 29.1067C22.868 29.4145 22.4426 29.5865 21.9998 29.5865C21.5571 29.5865 21.1317 29.4145 20.8134 29.1067L18.165 26.5304C17.8317 26.2037 17.5531 25.9281 17.329 25.7035C16.4053 24.7797 15.7762 23.6028 15.5214 22.3215C15.2666 21.0402 15.3974 19.7121 15.8974 18.5052C16.3973 17.2983 17.244 16.2667 18.3302 15.5409C19.4164 14.8151 20.6935 14.4277 21.9998 14.4277C23.3062 14.4277 24.5833 14.8151 25.6695 15.5409C26.7557 16.2667 27.6024 17.2983 28.1023 18.5052C28.6023 19.7121 28.7331 21.0402 28.4783 22.3215C28.2234 23.6028 27.5944 24.7797 26.6707 25.7035ZM23.8964 21.2413C23.8964 20.7383 23.6966 20.2559 23.3409 19.9003C22.9852 19.5446 22.5028 19.3448 21.9998 19.3448C21.4968 19.3448 21.0145 19.5446 20.6588 19.9003C20.3031 20.2559 20.1033 20.7383 20.1033 21.2413C20.1033 21.7443 20.3031 22.2267 20.6588 22.5824C21.0145 22.9381 21.4968 23.1379 21.9998 23.1379C22.5028 23.1379 22.9852 22.9381 23.3409 22.5824C23.6966 22.2267 23.8964 21.7443 23.8964 21.2413Z" fill="#000B14"/>
</svg>
