<svg width="49" height="61" viewBox="0 0 49 61" fill="none" xmlns="http://www.w3.org/2000/svg">
<g clip-path="url(#clip0_266_8504)">
<path fill-rule="evenodd" clip-rule="evenodd" d="M7.1465 14.7678L14.7997 7.0272H14.8411L19.9708 1.83891L21.2945 0.5V18.91V60.4163L19.9708 59.0774L14.8411 53.8891V35.4791L13.3104 33.931L9.83546 30.4163L7.18787 27.7385V46.1485L5.28492 44.2657L0.734375 39.6632V21.2531L5.24355 16.6925L7.1465 14.7678ZM14.386 25.8557L14.7997 26.2741V16.2322L9.83546 21.2531L14.386 25.8557ZM48.2668 21.2531V39.6632L43.6749 44.2657L43.6336 44.3075L41.8134 46.1904L37.9661 50.0398L34.1602 53.8891V53.9728L31.554 56.6506L29.0718 59.1611L27.7067 60.5V60.4163V18.91V0.583682V0.5L29.0718 1.83891L31.554 4.34937L34.1602 7.0272V7.11088L38.7521 11.7552L36.2286 14.3075L34.2015 16.3577L34.1602 16.3159V44.6841L37.9661 40.8347L39.083 39.705L39.1244 39.6632L41.8134 36.9435V27.7803L39.1244 30.5L37.9661 31.6297V22.4247L43.6749 16.6506L48.2668 21.2531Z" fill="#FFA047"/>
</g>
<defs>
<clipPath id="clip0_266_8504">
<rect width="47.5325" height="60" fill="white" transform="translate(0.734375 0.5)"/>
</clipPath>
</defs>
</svg>
