<svg width="395" height="25" viewBox="0 0 395 25" fill="none" xmlns="http://www.w3.org/2000/svg">
<g clip-path="url(#clip0_291_1788)">
<path d="M48.9128 0H48.8287H23.9521H23.8681H23.9521L0 25H24.9606L36.3904 13.0508L47.9043 25H72.7808L48.8287 0H48.9128Z" fill="#000B14"/>
<path d="M289.442 0H289.358H264.481L240.529 25H265.49L276.92 13.0508L288.434 25H313.31L289.442 0Z" fill="#000B14"/>
<path d="M149.007 0H105.137L129.089 25H154.049L139.51 9.91525L149.007 0Z" fill="#000B14"/>
<path d="M105.136 0H80.3438V25H105.136V0Z" fill="#000B14"/>
<path d="M345.752 0H320.959V25H345.752V0Z" fill="#000B14"/>
<path d="M370.713 0H370.208H345.752L369.704 25H395.001V0H370.713Z" fill="#000B14"/>
<path d="M185.398 0H160.605V25H185.398V0Z" fill="#000B14"/>
<path d="M216.41 13.1356L219.772 9.57627L229.016 0H204.056L194.811 9.57627L191.449 13.1356H198.257L209.602 25H234.479L223.133 13.1356H216.41Z" fill="#000B14"/>
</g>
<defs>
<clipPath id="clip0_291_1788">
<rect width="395" height="25" fill="white"/>
</clipPath>
</defs>
</svg>
