<svg width="17" height="18" viewBox="0 0 17 18" fill="none" xmlns="http://www.w3.org/2000/svg">
<path d="M14.6696 14.1638L12.2613 11.7625C13.0383 10.7726 13.4599 9.55013 13.4583 8.29167C13.4583 7.17091 13.126 6.07532 12.5033 5.14344C11.8807 4.21156 10.9957 3.48525 9.96021 3.05635C8.92476 2.62746 7.78538 2.51524 6.68616 2.73389C5.58693 2.95254 4.57723 3.49223 3.78473 4.28473C2.99223 5.07723 2.45254 6.08693 2.23389 7.18616C2.01524 8.28538 2.12746 9.42476 2.55635 10.4602C2.98525 11.4957 3.71156 12.3807 4.64344 13.0033C5.57532 13.626 6.67091 13.9583 7.79167 13.9583C9.05013 13.9599 10.2726 13.5383 11.2625 12.7613L13.6638 15.1696C13.7296 15.236 13.8079 15.2887 13.8943 15.3246C13.9806 15.3606 14.0732 15.3791 14.1667 15.3791C14.2602 15.3791 14.3528 15.3606 14.4391 15.3246C14.5254 15.2887 14.6037 15.236 14.6696 15.1696C14.736 15.1037 14.7887 15.0254 14.8246 14.9391C14.8606 14.8528 14.8791 14.7602 14.8791 14.6667C14.8791 14.5732 14.8606 14.4806 14.8246 14.3943C14.7887 14.3079 14.736 14.2296 14.6696 14.1638ZM3.54167 8.29167C3.54167 7.4511 3.79093 6.62941 4.25792 5.9305C4.72492 5.23159 5.38868 4.68685 6.16527 4.36518C6.94185 4.04351 7.79638 3.95934 8.6208 4.12333C9.44522 4.28732 10.2025 4.69209 10.7969 5.28647C11.3912 5.88084 11.796 6.63812 11.96 7.46254C12.124 8.28696 12.0398 9.14149 11.7182 9.91807C11.3965 10.6947 10.8518 11.3584 10.1528 11.8254C9.45393 12.2924 8.63224 12.5417 7.79167 12.5417C6.6645 12.5417 5.5835 12.0939 4.78647 11.2969C3.98944 10.4998 3.54167 9.41884 3.54167 8.29167Z" fill="black"/>
</svg>
