<svg width="44" height="44" viewBox="0 0 44 44" fill="none" xmlns="http://www.w3.org/2000/svg">
<circle cx="22" cy="22" r="21.25" stroke="#000B14" stroke-width="1.5"/>
<path d="M17.9181 21.0815C19.0105 23.2284 20.7705 24.9884 22.9174 26.0808L24.5864 24.4119C24.7988 24.1995 25.0946 24.1388 25.3602 24.2222C26.2098 24.5029 27.1202 24.6546 28.0684 24.6546C28.2696 24.6546 28.4626 24.7346 28.6049 24.8768C28.7471 25.0191 28.827 25.2121 28.827 25.4133V28.0684C28.827 28.2696 28.7471 28.4626 28.6049 28.6049C28.4626 28.7471 28.2696 28.827 28.0684 28.827C24.648 28.827 21.3678 27.4683 18.9492 25.0497C16.5306 22.6312 15.1719 19.3509 15.1719 15.9305C15.1719 15.7293 15.2518 15.5363 15.3941 15.3941C15.5363 15.2518 15.7293 15.1719 15.9305 15.1719H18.5857C18.7869 15.1719 18.9798 15.2518 19.1221 15.3941C19.2644 15.5363 19.3443 15.7293 19.3443 15.9305C19.3443 16.8788 19.496 17.7891 19.7767 18.6388C19.8602 18.9043 19.7995 19.2002 19.587 19.4126L17.9181 21.0815Z" fill="#000B14"/>
</svg>
