<svg width="46" height="46" viewBox="0 0 46 46" fill="none" xmlns="http://www.w3.org/2000/svg">
<circle cx="23" cy="23" r="22.25" stroke="#000B14" stroke-width="1.5"/>
<path d="M29.0075 17.8496C28.8829 17.7868 28.7616 17.7179 28.6441 17.6433C28.3023 17.423 27.9889 17.1634 27.7107 16.8701C27.0146 16.0935 26.7547 15.3057 26.6589 14.7541H26.6627C26.5827 14.2962 26.6158 14 26.6208 14H23.4504V25.9537C23.4504 26.1141 23.4504 26.2728 23.4434 26.4295C23.4434 26.449 23.4415 26.467 23.4404 26.488C23.4404 26.4966 23.4404 26.5056 23.4384 26.5146C23.4384 26.5169 23.4384 26.5191 23.4384 26.5214C23.405 26.9503 23.264 27.3646 23.0278 27.7279C22.7916 28.0912 22.4675 28.3923 22.084 28.6048C21.6842 28.8265 21.2321 28.9428 20.7722 28.9423C19.295 28.9423 18.0978 27.7678 18.0978 26.3174C18.0978 24.867 19.295 23.6925 20.7722 23.6925C21.0518 23.6923 21.3297 23.7352 21.5955 23.8196L21.5994 20.672C20.7923 20.5704 19.9724 20.6329 19.1913 20.8557C18.4103 21.0785 17.685 21.4567 17.0614 21.9665C16.5149 22.4294 16.0555 22.9818 15.7038 23.5988C15.57 23.8238 15.065 24.7278 15.0039 26.1951C14.9654 27.028 15.2219 27.8908 15.3442 28.2474V28.2549C15.4212 28.4649 15.7192 29.1815 16.2049 29.7856C16.5966 30.2702 17.0593 30.6958 17.5782 31.0489V31.0414L17.5859 31.0489C19.1208 32.0658 20.8225 31.9991 20.8225 31.9991C21.1171 31.9875 22.104 31.9991 23.2246 31.4813C24.4676 30.9072 25.1752 30.0518 25.1752 30.0518C25.6273 29.5408 25.9867 28.9583 26.2382 28.3295C26.5251 27.5942 26.6208 26.7122 26.6208 26.3598V20.0181C26.6593 20.0406 27.1715 20.3709 27.1715 20.3709C27.1715 20.3709 27.9095 20.8322 29.061 21.1325C29.887 21.3463 31 21.3913 31 21.3913V18.3224C30.61 18.3637 29.8182 18.2437 29.0075 17.8496Z" fill="black"/>
</svg>
